<svg xmlns="http://www.w3.org/2000/svg" version="1.1" xmlns:xlink="http://www.w3.org/1999/xlink" xmlns:svgjs="http://svgjs.com/svgjs" width="1920" height="1000" preserveAspectRatio="none" viewBox="0 0 1920 1000"><g mask="url(&quot;#SvgjsMask1036&quot;)" fill="none"><rect width="1920" height="1000" x="0" y="0" fill="rgba(0, 0, 0, 1)"></rect><path d="M1459 537L950 1046" stroke-width="8" stroke="url(#SvgjsLinearGradient1037)" stroke-linecap="round" class="TopRight"></path><path d="M1828 501L1196 1133" stroke-width="6" stroke="url(#SvgjsLinearGradient1037)" stroke-linecap="round" class="TopRight"></path><path d="M1234 439L878 795" stroke-width="10" stroke="url(#SvgjsLinearGradient1038)" stroke-linecap="round" class="BottomLeft"></path><path d="M1746 528L2077 197" stroke-width="6" stroke="url(#SvgjsLinearGradient1037)" stroke-linecap="round" class="TopRight"></path><path d="M975 265L1292 -52" stroke-width="6" stroke="url(#SvgjsLinearGradient1037)" stroke-linecap="round" class="TopRight"></path><path d="M868 388L357 899" stroke-width="10" stroke="url(#SvgjsLinearGradient1037)" stroke-linecap="round" class="TopRight"></path><path d="M127 597L-277 1001" stroke-width="8" stroke="url(#SvgjsLinearGradient1038)" stroke-linecap="round" class="BottomLeft"></path><path d="M1907 832L1320 1419" stroke-width="10" stroke="url(#SvgjsLinearGradient1037)" stroke-linecap="round" class="TopRight"></path><path d="M723 964L301 1386" stroke-width="8" stroke="url(#SvgjsLinearGradient1038)" stroke-linecap="round" class="BottomLeft"></path><path d="M1774 740L2189 325" stroke-width="8" stroke="url(#SvgjsLinearGradient1037)" stroke-linecap="round" class="TopRight"></path><path d="M1092 10L529 573" stroke-width="10" stroke="url(#SvgjsLinearGradient1038)" stroke-linecap="round" class="BottomLeft"></path><path d="M1425 718L2035 108" stroke-width="6" stroke="url(#SvgjsLinearGradient1037)" stroke-linecap="round" class="TopRight"></path><path d="M939 199L612 526" stroke-width="6" stroke="url(#SvgjsLinearGradient1037)" stroke-linecap="round" class="TopRight"></path><path d="M317 39L-167 523" stroke-width="10" stroke="url(#SvgjsLinearGradient1038)" stroke-linecap="round" class="BottomLeft"></path><path d="M1900 514L1184 1230" stroke-width="6" stroke="url(#SvgjsLinearGradient1038)" stroke-linecap="round" class="BottomLeft"></path><path d="M1329 978L1596 711" stroke-width="10" stroke="url(#SvgjsLinearGradient1038)" stroke-linecap="round" class="BottomLeft"></path><path d="M1790 153L1207 736" stroke-width="10" stroke="url(#SvgjsLinearGradient1037)" stroke-linecap="round" class="TopRight"></path><path d="M1434 217L1907 -256" stroke-width="8" stroke="url(#SvgjsLinearGradient1037)" stroke-linecap="round" class="TopRight"></path><path d="M820 747L221 1346" stroke-width="6" stroke="url(#SvgjsLinearGradient1037)" stroke-linecap="round" class="TopRight"></path><path d="M1203 369L1811 -239" stroke-width="8" stroke="url(#SvgjsLinearGradient1037)" stroke-linecap="round" class="TopRight"></path><path d="M242 672L-265 1179" stroke-width="10" stroke="url(#SvgjsLinearGradient1038)" stroke-linecap="round" class="BottomLeft"></path><path d="M19 507L672 -146" stroke-width="6" stroke="url(#SvgjsLinearGradient1037)" stroke-linecap="round" class="TopRight"></path><path d="M1113 759L1827 45" stroke-width="6" stroke="url(#SvgjsLinearGradient1038)" stroke-linecap="round" class="BottomLeft"></path><path d="M1226 512L1944 -206" stroke-width="6" stroke="url(#SvgjsLinearGradient1038)" stroke-linecap="round" class="BottomLeft"></path><path d="M241 808L817 232" stroke-width="6" stroke="url(#SvgjsLinearGradient1037)" stroke-linecap="round" class="TopRight"></path><path d="M1674 200L2381 -507" stroke-width="8" stroke="url(#SvgjsLinearGradient1038)" stroke-linecap="round" class="BottomLeft"></path><path d="M1844 92L2113 -177" stroke-width="8" stroke="url(#SvgjsLinearGradient1038)" stroke-linecap="round" class="BottomLeft"></path><path d="M17 596L-500 1113" stroke-width="6" stroke="url(#SvgjsLinearGradient1037)" stroke-linecap="round" class="TopRight"></path><path d="M140 337L807 -330" stroke-width="10" stroke="url(#SvgjsLinearGradient1037)" stroke-linecap="round" class="TopRight"></path><path d="M1454 426L2134 -254" stroke-width="8" stroke="url(#SvgjsLinearGradient1038)" stroke-linecap="round" class="BottomLeft"></path><path d="M192 110L618 -316" stroke-width="8" stroke="url(#SvgjsLinearGradient1037)" stroke-linecap="round" class="TopRight"></path><path d="M692 563L1069 186" stroke-width="6" stroke="url(#SvgjsLinearGradient1038)" stroke-linecap="round" class="BottomLeft"></path><path d="M835 273L197 911" stroke-width="10" stroke="url(#SvgjsLinearGradient1038)" stroke-linecap="round" class="BottomLeft"></path><path d="M420 339L97 662" stroke-width="10" stroke="url(#SvgjsLinearGradient1038)" stroke-linecap="round" class="BottomLeft"></path><path d="M494 239L1176 -443" stroke-width="8" stroke="url(#SvgjsLinearGradient1038)" stroke-linecap="round" class="BottomLeft"></path><path d="M1261 271L1823 -291" stroke-width="10" stroke="url(#SvgjsLinearGradient1037)" stroke-linecap="round" class="TopRight"></path><path d="M172 693L480 385" stroke-width="8" stroke="url(#SvgjsLinearGradient1038)" stroke-linecap="round" class="BottomLeft"></path><path d="M1766 177L1020 923" stroke-width="6" stroke="url(#SvgjsLinearGradient1038)" stroke-linecap="round" class="BottomLeft"></path><path d="M357 841L1010 188" stroke-width="8" stroke="url(#SvgjsLinearGradient1038)" stroke-linecap="round" class="BottomLeft"></path><path d="M1519 239L1044 714" stroke-width="10" stroke="url(#SvgjsLinearGradient1037)" stroke-linecap="round" class="TopRight"></path><path d="M1407 0L1854 -447" stroke-width="8" stroke="url(#SvgjsLinearGradient1037)" stroke-linecap="round" class="TopRight"></path><path d="M391 772L-313 1476" stroke-width="6" stroke="url(#SvgjsLinearGradient1038)" stroke-linecap="round" class="BottomLeft"></path><path d="M18 106L-631 755" stroke-width="8" stroke="url(#SvgjsLinearGradient1037)" stroke-linecap="round" class="TopRight"></path><path d="M1277 632L1744 165" stroke-width="6" stroke="url(#SvgjsLinearGradient1037)" stroke-linecap="round" class="TopRight"></path><path d="M77 38L358 -243" stroke-width="8" stroke="url(#SvgjsLinearGradient1037)" stroke-linecap="round" class="TopRight"></path><path d="M1898 583L1622 859" stroke-width="6" stroke="url(#SvgjsLinearGradient1037)" stroke-linecap="round" class="TopRight"></path><path d="M615 336L228 723" stroke-width="6" stroke="url(#SvgjsLinearGradient1037)" stroke-linecap="round" class="TopRight"></path><path d="M1327 75L1988 -586" stroke-width="8" stroke="url(#SvgjsLinearGradient1038)" stroke-linecap="round" class="BottomLeft"></path><path d="M1310 77L1922 -535" stroke-width="6" stroke="url(#SvgjsLinearGradient1038)" stroke-linecap="round" class="BottomLeft"></path><path d="M909 172L1257 -176" stroke-width="8" stroke="url(#SvgjsLinearGradient1037)" stroke-linecap="round" class="TopRight"></path><path d="M521 777L1254 44" stroke-width="10" stroke="url(#SvgjsLinearGradient1038)" stroke-linecap="round" class="BottomLeft"></path><path d="M372 198L789 -219" stroke-width="10" stroke="url(#SvgjsLinearGradient1038)" stroke-linecap="round" class="BottomLeft"></path><path d="M1551 417L1029 939" stroke-width="8" stroke="url(#SvgjsLinearGradient1038)" stroke-linecap="round" class="BottomLeft"></path><path d="M217 191L788 -380" stroke-width="6" stroke="url(#SvgjsLinearGradient1038)" stroke-linecap="round" class="BottomLeft"></path><path d="M926 858L463 1321" stroke-width="8" stroke="url(#SvgjsLinearGradient1037)" stroke-linecap="round" class="TopRight"></path></g><defs><mask id="SvgjsMask1036"><rect width="1920" height="1000" fill="#ffffff"></rect></mask><linearGradient x1="0%" y1="100%" x2="100%" y2="0%" id="SvgjsLinearGradient1037"><stop stop-color="rgba(191, 33, 31, 0)" offset="0"></stop><stop stop-color="rgba(191, 33, 31, 1)" offset="1"></stop></linearGradient><linearGradient x1="100%" y1="0%" x2="0%" y2="100%" id="SvgjsLinearGradient1038"><stop stop-color="rgba(191, 33, 31, 0)" offset="0"></stop><stop stop-color="rgba(191, 33, 31, 1)" offset="1"></stop></linearGradient></defs></svg>